<svg width="32" height="32" viewBox="0 0 32 32" xmlns="http://www.w3.org/2000/svg">
  <defs>
    <linearGradient id="faviconGradient" x1="0%" y1="0%" x2="100%" y2="100%">
      <stop offset="0%" style="stop-color:#00D4AA;stop-opacity:1" />
      <stop offset="100%" style="stop-color:#0EA5E9;stop-opacity:1" />
    </linearGradient>
  </defs>
  
  <!-- Hexagon shape -->
  <polygon points="16,4 24,8 24,16 16,20 8,16 8,8" fill="url(#faviconGradient)" stroke="#00D4AA" stroke-width="1"/>
  
  <!-- Inner molecular structure -->
  <g fill="white" stroke="white" stroke-width="0.8">
    <!-- Molecular nodes -->
    <circle cx="12" cy="10" r="1"/>
    <circle cx="20" cy="10" r="1"/>
    <circle cx="12" cy="14" r="1"/>
    <circle cx="20" cy="14" r="1"/>
    <circle cx="16" cy="8" r="1"/>
    <circle cx="16" cy="16" r="1"/>
    
    <!-- Molecular bonds -->
    <line x1="12" y1="10" x2="16" y2="8"/>
    <line x1="16" y1="8" x2="20" y2="10"/>
    <line x1="12" y1="10" x2="12" y2="14"/>
    <line x1="20" y1="10" x2="20" y2="14"/>
    <line x1="12" y1="14" x2="16" y2="16"/>
    <line x1="20" y1="14" x2="16" y2="16"/>
    <line x1="12" y1="10" x2="20" y2="14"/>
    <line x1="20" y1="10" x2="12" y2="14"/>
  </g>
</svg>