<svg width="300" height="80" viewBox="0 0 300 80" xmlns="http://www.w3.org/2000/svg">
  <!-- Hexagonal icon background -->
  <defs>
    <linearGradient id="hexGradient" x1="0%" y1="0%" x2="100%" y2="100%">
      <stop offset="0%" style="stop-color:#00D4AA;stop-opacity:1" />
      <stop offset="100%" style="stop-color:#0EA5E9;stop-opacity:1" />
    </linearGradient>
  </defs>
  
  <!-- Hexagon shape -->
  <polygon points="40,10 60,20 60,40 40,50 20,40 20,20" fill="url(#hexGradient)" stroke="#00D4AA" stroke-width="2"/>
  
  <!-- Inner molecular structure -->
  <g fill="white" stroke="white" stroke-width="1.5">
    <!-- Molecular nodes -->
    <circle cx="32" cy="25" r="2"/>
    <circle cx="48" cy="25" r="2"/>
    <circle cx="32" cy="35" r="2"/>
    <circle cx="48" cy="35" r="2"/>
    <circle cx="40" cy="20" r="2"/>
    <circle cx="40" cy="40" r="2"/>
    
    <!-- Molecular bonds -->
    <line x1="32" y1="25" x2="40" y2="20"/>
    <line x1="40" y1="20" x2="48" y2="25"/>
    <line x1="32" y1="25" x2="32" y2="35"/>
    <line x1="48" y1="25" x2="48" y2="35"/>
    <line x1="32" y1="35" x2="40" y2="40"/>
    <line x1="48" y1="35" x2="40" y2="40"/>
    <line x1="32" y1="25" x2="48" y2="35"/>
    <line x1="48" y1="25" x2="32" y2="35"/>
  </g>
  
  <!-- Zyntro text -->
  <text x="85" y="35" font-family="Arial, sans-serif" font-size="28" font-weight="bold" fill="#1E3A8A">Zyntro</text>
  
  <!-- Tagline -->
  <text x="85" y="55" font-family="Arial, sans-serif" font-size="12" fill="#6B7280" letter-spacing="2px">ANALYTICAL LAB SOLUTIONS</text>
</svg>